#define MirrorTall_width 15
#define MirrorTall_height 12
static char MirrorTall_bits[] = {
  0x00, 0x00, 0xFE, 0x3F, 0x02, 0x20, 0x02, 0x20, 0x02, 0x20, 0x02, 0x20, 
  0xFE, 0x3F, 0x22, 0x22, 0x22, 0x22, 0x22, 0x22, 0xFE, 0x3F, 0x00, 0x00, 
  };
