#define Tall_width 15
#define Tall_height 12
static char Tall_bits[] = {
  0x00, 0x00, 0xFE, 0x3F, 0x02, 0x22, 0x02, 0x22, 0x02, 0x3E, 0x02, 0x22, 
  0x02, 0x22, 0x02, 0x3E, 0x02, 0x22, 0x02, 0x22, 0xFE, 0x3F, 0x00, 0x00, 
  };
